<mxfile host="app.diagrams.net" modified="2024-07-07T02:52:51.123Z" agent="Mozilla/5.0 (Windows NT 10.0; Win64; x64) AppleWebKit/537.36 (KHTML, like Gecko) Chrome/126.0.0.0 Safari/537.36" etag="CuQtMRB1g_UtWloGzoEg" version="24.6.4" type="device">
  <diagram name="PÃ¡gina-1" id="gJiqL_ySH89lQc2j93OU">
    <mxGraphModel dx="848" dy="461" grid="1" gridSize="10" guides="1" tooltips="1" connect="1" arrows="1" fold="1" page="1" pageScale="1" pageWidth="827" pageHeight="1169" math="0" shadow="0">
      <root>
        <mxCell id="0" />
        <mxCell id="1" parent="0" />
        <mxCell id="YAXkYYuzLb_Y9YDkj1pX-1" value="&lt;p style=&quot;margin:0px;margin-top:4px;text-align:center;&quot;&gt;&lt;b&gt;AppEstacionamiento&lt;/b&gt;&lt;/p&gt;&lt;hr size=&quot;1&quot; style=&quot;border-style:solid;&quot;&gt;&lt;p style=&quot;margin:0px;margin-left:4px;&quot;&gt;-&amp;nbsp;&lt;b&gt;Estacionamiento&lt;/b&gt; : estacionamiento&lt;/p&gt;&lt;p style=&quot;margin:0px;margin-left:4px;&quot;&gt;-&lt;b&gt; ListaGenSEO&amp;lt;Vehiculo&amp;gt;&lt;/b&gt; : controlSalida&lt;/p&gt;&lt;hr size=&quot;1&quot; style=&quot;border-style:solid;&quot;&gt;&lt;p style=&quot;margin:0px;margin-left:4px;&quot;&gt;+ main();&lt;/p&gt;&lt;p style=&quot;margin:0px;margin-left:4px;&quot;&gt;+ AppEstacionamiento();&lt;/p&gt;&lt;p style=&quot;margin:0px;margin-left:4px;&quot;&gt;+ menu();&lt;/p&gt;&lt;p style=&quot;margin:0px;margin-left:4px;&quot;&gt;+ mostrarOpciones();&lt;/p&gt;&lt;p style=&quot;margin:0px;margin-left:4px;&quot;&gt;+ agregar();&lt;/p&gt;&lt;p style=&quot;margin:0px;margin-left:4px;&quot;&gt;+ salidaVehiculo();&lt;/p&gt;&lt;p style=&quot;margin:0px;margin-left:4px;&quot;&gt;+ verVehiculosPredio();&lt;/p&gt;&lt;p style=&quot;margin:0px;margin-left:4px;&quot;&gt;+ verVehiculosSalida();&lt;/p&gt;&lt;p style=&quot;margin:0px;margin-left:4px;&quot;&gt;+ determinarVehiculo();&lt;/p&gt;&lt;p style=&quot;margin:0px;margin-left:4px;&quot;&gt;+ getEstacionamiento() : &lt;b&gt;Estacionamiento&lt;/b&gt;;&lt;/p&gt;&lt;p style=&quot;margin:0px;margin-left:4px;&quot;&gt;+ getControlSalida() : &lt;b&gt;ListaGenSEO&amp;lt;Vehiculo&amp;gt;&lt;/b&gt;;&lt;/p&gt;&lt;p style=&quot;margin:0px;margin-left:4px;&quot;&gt;+ setEstacionamiento(&lt;b&gt;Estacionamiento&lt;/b&gt;&amp;nbsp;estacionamiento);&lt;/p&gt;&lt;p style=&quot;margin:0px;margin-left:4px;&quot;&gt;+ setControlSalida(&lt;b&gt;ListaGenSEO&amp;lt;Vehiculo&amp;gt;&lt;/b&gt;&amp;nbsp;controlSalida);&lt;/p&gt;&lt;p style=&quot;margin:0px;margin-left:4px;&quot;&gt;&lt;br&gt;&lt;/p&gt;" style="verticalAlign=top;align=left;overflow=fill;html=1;whiteSpace=wrap;" vertex="1" parent="1">
          <mxGeometry x="20" y="10" width="340" height="270" as="geometry" />
        </mxCell>
        <mxCell id="YAXkYYuzLb_Y9YDkj1pX-11" value="&lt;p style=&quot;margin:0px;margin-top:4px;text-align:center;&quot;&gt;&lt;b&gt;Estacionamiento&lt;/b&gt;&lt;/p&gt;&lt;hr size=&quot;1&quot; style=&quot;border-style:solid;&quot;&gt;&lt;p style=&quot;margin:0px;margin-left:4px;&quot;&gt;- &lt;b&gt;boolean[]&lt;/b&gt;&amp;nbsp;: posicon&lt;/p&gt;&lt;p style=&quot;margin:0px;margin-left:4px;&quot;&gt;- &lt;b&gt;ListaGenSEO&amp;lt;Vehiculo&amp;gt;&lt;/b&gt;&amp;nbsp;: estacionamiento&lt;/p&gt;&lt;p style=&quot;margin:0px;margin-left:4px;&quot;&gt;- &lt;b&gt;final int&lt;/b&gt;&amp;nbsp;: MAX_DIMENSION_A = 99&lt;/p&gt;&lt;p style=&quot;margin:0px;margin-left:4px;&quot;&gt;-&amp;nbsp;&lt;b&gt;final int&lt;/b&gt;&amp;nbsp;: MIN_DIMENSION_A = 0&lt;br&gt;&lt;/p&gt;&lt;p style=&quot;margin:0px;margin-left:4px;&quot;&gt;-&amp;nbsp;&lt;b&gt;final int&lt;/b&gt;&amp;nbsp;: MAX_DIMENSION_M = 199&lt;br&gt;&lt;/p&gt;&lt;p style=&quot;margin:0px;margin-left:4px;&quot;&gt;-&amp;nbsp;&lt;b&gt;final int&lt;/b&gt;&amp;nbsp;: MIN_DIMENSION_M = 100&lt;br&gt;&lt;/p&gt;&lt;p style=&quot;margin:0px;margin-left:4px;&quot;&gt;-&amp;nbsp;&lt;b&gt;final int&lt;/b&gt;&amp;nbsp;: MAX_DIMENSION_U = 299&lt;br&gt;&lt;/p&gt;&lt;p style=&quot;margin:0px;margin-left:4px;&quot;&gt;-&amp;nbsp;&lt;b&gt;final int&lt;/b&gt;&amp;nbsp;: MIN_DIMENSION_U = 200&lt;br&gt;&lt;/p&gt;&lt;hr size=&quot;1&quot; style=&quot;border-style:solid;&quot;&gt;&lt;p style=&quot;margin:0px;margin-left:4px;&quot;&gt;+ Estacionamiento();&lt;/p&gt;&lt;p style=&quot;margin:0px;margin-left:4px;&quot;&gt;+ mostrarVehiculos();&lt;/p&gt;&lt;p style=&quot;margin:0px;margin-left:4px;&quot;&gt;+ encontrarLugar(&lt;b&gt;int&lt;/b&gt;&amp;nbsp;tipoVehiculo);&lt;/p&gt;&lt;p style=&quot;margin:0px;margin-left:4px;&quot;&gt;+ asignarLugar(&lt;b&gt;int&lt;/b&gt;&amp;nbsp;limiteInferior, &lt;b&gt;int&lt;/b&gt;&amp;nbsp;limiteSuperior) : &lt;b&gt;int&lt;/b&gt;&lt;/p&gt;&lt;p style=&quot;margin:0px;margin-left:4px;&quot;&gt;+ ingresoLugar(&lt;b&gt;int &lt;/b&gt;numeroLugar);&lt;/p&gt;&lt;p style=&quot;margin:0px;margin-left:4px;&quot;&gt;+ retiroVehiculo() : &lt;b&gt;Vehiculo&lt;/b&gt;&lt;/p&gt;&lt;p style=&quot;margin:0px;margin-left:4px;&quot;&gt;+ verificarExistencia(&lt;b&gt;String&lt;/b&gt;&amp;nbsp;chapa) : &lt;b&gt;boolean&lt;/b&gt;&lt;/p&gt;&lt;p style=&quot;margin:0px;margin-left:4px;&quot;&gt;+ buscarVehiculo(&lt;b&gt;String &lt;/b&gt;chapa) : &lt;b&gt;Vehiculo&lt;/b&gt;&lt;/p&gt;&lt;p style=&quot;margin:0px;margin-left:4px;&quot;&gt;+ asignarFechaHoraSalida(&lt;b&gt;Vehiculo&lt;/b&gt;&amp;nbsp;vehiculo);&lt;/p&gt;&lt;p style=&quot;margin:0px;margin-left:4px;&quot;&gt;+ desocuparLugar(&lt;b&gt;Vehiculo&lt;/b&gt;&amp;nbsp;vehiculo);&lt;/p&gt;&lt;p style=&quot;margin:0px;margin-left:4px;&quot;&gt;+ ingresarAuto(&lt;b&gt;int&lt;/b&gt;&amp;nbsp;lugar);&lt;/p&gt;&lt;p style=&quot;margin:0px;margin-left:4px;&quot;&gt;+ ingresarMoto(&lt;b&gt;int&lt;/b&gt;&amp;nbsp;lugar);&lt;/p&gt;&lt;p style=&quot;margin:0px;margin-left:4px;&quot;&gt;+ ingresarUtilitario(&lt;b&gt;int&lt;/b&gt;&amp;nbsp;lugar);&lt;/p&gt;&lt;p style=&quot;margin:0px;margin-left:4px;&quot;&gt;+ getEstacionamiento() : &lt;b&gt;ListaGenSEO&amp;lt;Vehiculo&amp;gt;&lt;/b&gt;&lt;/p&gt;&lt;p style=&quot;margin:0px;margin-left:4px;&quot;&gt;+ setEstacionamiento(&lt;b&gt;ListaGenSEO&amp;lt;Vehiculo&amp;gt;&lt;/b&gt;&amp;nbsp;estacionamiento)&lt;/p&gt;" style="verticalAlign=top;align=left;overflow=fill;html=1;whiteSpace=wrap;" vertex="1" parent="1">
          <mxGeometry x="420" width="380" height="390" as="geometry" />
        </mxCell>
        <mxCell id="YAXkYYuzLb_Y9YDkj1pX-13" value="&lt;p style=&quot;margin:0px;margin-top:4px;text-align:center;&quot;&gt;&lt;b&gt;ListaGenSE&lt;/b&gt;&lt;/p&gt;&lt;hr size=&quot;1&quot; style=&quot;border-style:solid;&quot;&gt;&lt;p style=&quot;margin:0px;margin-left:4px;&quot;&gt;# &lt;b&gt;Nodo&amp;lt;T&amp;gt;&lt;/b&gt;&amp;nbsp;: list&lt;/p&gt;&lt;hr size=&quot;1&quot; style=&quot;border-style:solid;&quot;&gt;&lt;p style=&quot;margin:0px;margin-left:4px;&quot;&gt;+ listaGenSE();&lt;/p&gt;&lt;p style=&quot;margin:0px;margin-left:4px;&quot;&gt;+ inicio() : &lt;b&gt;Nodo&amp;lt;T&amp;gt;&lt;/b&gt;&lt;/p&gt;&lt;p style=&quot;margin:0px;margin-left:4px;&quot;&gt;+ listaVacia() : &lt;b&gt;boolean&lt;/b&gt;&lt;/p&gt;&lt;p style=&quot;margin:0px;margin-left:4px;&quot;&gt;+ insertarPri(&lt;b&gt;T&lt;/b&gt;&amp;nbsp;elem);&lt;/p&gt;&lt;p style=&quot;margin:0px;margin-left:4px;&quot;&gt;+ quitar(&lt;b&gt;Nodo&amp;lt;T&amp;gt; &lt;/b&gt;p, &lt;b&gt;Nodo&amp;lt;T&amp;gt;&lt;/b&gt;&amp;nbsp;ant) : &lt;b&gt;Nodo&amp;lt;T&amp;gt;&lt;/b&gt;&lt;/p&gt;&lt;p style=&quot;margin:0px;margin-left:4px;&quot;&gt;+ eliminar(&lt;b&gt;T&lt;/b&gt;&amp;nbsp;elem) : &lt;b&gt;Nodo&amp;lt;T&amp;gt;&lt;/b&gt;&lt;/p&gt;&lt;p style=&quot;margin:0px;margin-left:4px;&quot;&gt;+ visualizar();&lt;/p&gt;&lt;p style=&quot;margin:0px;margin-left:4px;&quot;&gt;&lt;br&gt;&lt;/p&gt;" style="verticalAlign=top;align=left;overflow=fill;html=1;whiteSpace=wrap;" vertex="1" parent="1">
          <mxGeometry x="50" y="370" width="260" height="170" as="geometry" />
        </mxCell>
        <mxCell id="YAXkYYuzLb_Y9YDkj1pX-14" value="&lt;p style=&quot;margin:0px;margin-top:4px;text-align:center;&quot;&gt;&lt;b&gt;ListaGenSE&lt;/b&gt;&lt;/p&gt;&lt;hr size=&quot;1&quot; style=&quot;border-style:solid;&quot;&gt;&lt;p style=&quot;margin:0px;margin-left:4px;&quot;&gt;&lt;br&gt;&lt;/p&gt;&lt;hr size=&quot;1&quot; style=&quot;border-style:solid;&quot;&gt;&lt;p style=&quot;margin:0px;margin-left:4px;&quot;&gt;+ listaGenSEO();&lt;/p&gt;&lt;p style=&quot;margin:0px;margin-left:4px;&quot;&gt;+ insertarMedio(&lt;b&gt;Nodo&amp;lt;T&amp;gt; &lt;/b&gt;p, &lt;b&gt;Nodo&amp;lt;T&amp;gt;&lt;/b&gt;&amp;nbsp;ant, &lt;b&gt;Nodo&amp;lt;T&amp;gt;&lt;/b&gt;&amp;nbsp;x);&lt;/p&gt;&lt;p style=&quot;margin:0px;margin-left:4px;&quot;&gt;+ insertarFin(&lt;b style=&quot;background-color: initial;&quot;&gt;Nodo&amp;lt;T&amp;gt;&amp;nbsp;&lt;/b&gt;&lt;span style=&quot;background-color: initial;&quot;&gt;p,&lt;/span&gt;&lt;span style=&quot;background-color: initial;&quot;&gt;&amp;nbsp;&lt;/span&gt;&lt;b style=&quot;background-color: initial;&quot;&gt;Nodo&amp;lt;T&amp;gt;&lt;/b&gt;&lt;span style=&quot;background-color: initial;&quot;&gt;&amp;nbsp;ant,&lt;/span&gt;&lt;span style=&quot;background-color: initial;&quot;&gt;&amp;nbsp;&lt;/span&gt;&lt;b style=&quot;background-color: initial;&quot;&gt;Nodo&amp;lt;T&amp;gt;&lt;/b&gt;&lt;span style=&quot;background-color: initial;&quot;&gt;&amp;nbsp;x);&lt;/span&gt;&lt;/p&gt;&lt;p style=&quot;margin:0px;margin-left:4px;&quot;&gt;+ insertar(&lt;b&gt;T&lt;/b&gt;&amp;nbsp;entrada);&lt;/p&gt;&lt;p style=&quot;margin:0px;margin-left:4px;&quot;&gt;+ quitar(&lt;b&gt;Nodo&amp;lt;T&amp;gt; &lt;/b&gt;p, &lt;b&gt;Nodo&amp;lt;T&amp;gt;&lt;/b&gt;&amp;nbsp;ant) : &lt;b&gt;Nodo&amp;lt;T&amp;gt;&lt;/b&gt;&lt;/p&gt;&lt;p style=&quot;margin:0px;margin-left:4px;&quot;&gt;+ eliminar(&lt;b&gt;T&lt;/b&gt;&amp;nbsp;elem, &lt;b&gt;String&lt;/b&gt;&amp;nbsp;mensaje) : &lt;b&gt;Nodo&amp;lt;T&amp;gt;&lt;/b&gt;&lt;/p&gt;&lt;p style=&quot;margin:0px;margin-left:4px;&quot;&gt;+ visualizar();&lt;/p&gt;&lt;p style=&quot;margin:0px;margin-left:4px;&quot;&gt;&lt;br&gt;&lt;/p&gt;" style="verticalAlign=top;align=left;overflow=fill;html=1;whiteSpace=wrap;" vertex="1" parent="1">
          <mxGeometry x="20" y="590" width="340" height="170" as="geometry" />
        </mxCell>
        <mxCell id="YAXkYYuzLb_Y9YDkj1pX-15" value="&lt;p style=&quot;margin:0px;margin-top:4px;text-align:center;&quot;&gt;&lt;b&gt;Nodo&lt;/b&gt;&lt;/p&gt;&lt;hr size=&quot;1&quot; style=&quot;border-style:solid;&quot;&gt;&lt;p style=&quot;margin:0px;margin-left:4px;&quot;&gt;- &lt;b&gt;T&lt;/b&gt;&amp;nbsp;: dato&lt;/p&gt;&lt;p style=&quot;margin:0px;margin-left:4px;&quot;&gt;-&amp;nbsp;&lt;b&gt;Nodo&amp;lt;T&amp;gt;&lt;/b&gt;&amp;nbsp;: ps&lt;/p&gt;&lt;hr size=&quot;1&quot; style=&quot;border-style:solid;&quot;&gt;&lt;p style=&quot;margin:0px;margin-left:4px;&quot;&gt;+ Nodo();&lt;/p&gt;&lt;p style=&quot;margin:0px;margin-left:4px;&quot;&gt;+ Nodo(&lt;b&gt;T&lt;/b&gt;&amp;nbsp;elem);&lt;/p&gt;&lt;p style=&quot;margin:0px;margin-left:4px;&quot;&gt;+ getDato() : &lt;b&gt;T&lt;/b&gt;&lt;/p&gt;&lt;p style=&quot;margin:0px;margin-left:4px;&quot;&gt;+ getPs() : &lt;b&gt;Nodo&amp;lt;T&amp;gt;&lt;/b&gt;&lt;/p&gt;&lt;p style=&quot;margin:0px;margin-left:4px;&quot;&gt;+ setDato(&lt;b&gt;T &lt;/b&gt;dato);&lt;/p&gt;&lt;p style=&quot;margin:0px;margin-left:4px;&quot;&gt;+ setPs(&lt;b&gt;Nodo&amp;lt;T&amp;gt; &lt;/b&gt;ps);&lt;/p&gt;&lt;p style=&quot;margin:0px;margin-left:4px;&quot;&gt;&lt;br&gt;&lt;/p&gt;" style="verticalAlign=top;align=left;overflow=fill;html=1;whiteSpace=wrap;" vertex="1" parent="1">
          <mxGeometry x="440" y="460" width="260" height="170" as="geometry" />
        </mxCell>
        <mxCell id="YAXkYYuzLb_Y9YDkj1pX-16" value="&lt;p style=&quot;margin:0px;margin-top:4px;text-align:center;&quot;&gt;&lt;i&gt;&amp;lt;&amp;lt;Abstract&amp;gt;&amp;gt;&lt;/i&gt;&lt;br&gt;&lt;b&gt;Vehiculo&lt;/b&gt;&lt;/p&gt;&lt;hr size=&quot;1&quot; style=&quot;border-style:solid;&quot;&gt;&lt;p style=&quot;margin:0px;margin-left:4px;&quot;&gt;# &lt;b&gt;String &lt;/b&gt;: patente&lt;/p&gt;&lt;p style=&quot;margin:0px;margin-left:4px;&quot;&gt;#&amp;nbsp;&lt;b&gt;String &lt;/b&gt;: descripcion&lt;/p&gt;&lt;p style=&quot;margin:0px;margin-left:4px;&quot;&gt;# &lt;b&gt;LocalDate&lt;/b&gt;&amp;nbsp;: fechaIngreso&lt;/p&gt;&lt;p style=&quot;margin:0px;margin-left:4px;&quot;&gt;#&amp;nbsp;&lt;b&gt;LocalDate&lt;/b&gt;&amp;nbsp;: fechaSalida&lt;/p&gt;&lt;p style=&quot;margin:0px;margin-left:4px;&quot;&gt;#&amp;nbsp;&lt;b&gt;LocalTime &lt;/b&gt;: horaIngreso&lt;/p&gt;&lt;p style=&quot;margin:0px;margin-left:4px;&quot;&gt;#&amp;nbsp;&lt;b&gt;LocalTime&lt;/b&gt;&amp;nbsp;: horaSalida&lt;/p&gt;&lt;p style=&quot;margin:0px;margin-left:4px;&quot;&gt;# &lt;b&gt;int&lt;/b&gt;&amp;nbsp;: anio&lt;/p&gt;&lt;p style=&quot;margin:0px;margin-left:4px;&quot;&gt;# &lt;b&gt;boolean&lt;/b&gt;&amp;nbsp;: llave&lt;/p&gt;&lt;p style=&quot;margin:0px;margin-left:4px;&quot;&gt;# &lt;b&gt;int&lt;/b&gt;&amp;nbsp;: lugar&lt;br&gt;&lt;/p&gt;&lt;hr size=&quot;1&quot; style=&quot;border-style:solid;&quot;&gt;&lt;p style=&quot;margin:0px;margin-left:4px;&quot;&gt;+ Vehiculo(&lt;b&gt;int&lt;/b&gt;&amp;nbsp;lugar);&lt;br&gt;+ &lt;i&gt;abstract&amp;nbsp;ingresoPatente()&lt;/i&gt;;&lt;/p&gt;&lt;p style=&quot;margin:0px;margin-left:4px;&quot;&gt;+ leerDatosIngreso();&lt;/p&gt;&lt;p style=&quot;margin:0px;margin-left:4px;&quot;&gt;+ mostrarVehiculo();&lt;/p&gt;&lt;p style=&quot;margin:0px;margin-left:4px;&quot;&gt;+ &lt;i&gt;abstract compareto(&lt;b&gt;Vehiculo&lt;/b&gt;&amp;nbsp;o) &lt;/i&gt;: &lt;b&gt;int&lt;/b&gt;&lt;/p&gt;&lt;p style=&quot;margin:0px;margin-left:4px;&quot;&gt;+ getter&#39;s &amp;amp;&amp;amp; setter&#39;s&lt;/p&gt;" style="verticalAlign=top;align=left;overflow=fill;html=1;whiteSpace=wrap;" vertex="1" parent="1">
          <mxGeometry x="430" y="680" width="280" height="320" as="geometry" />
        </mxCell>
        <mxCell id="YAXkYYuzLb_Y9YDkj1pX-18" value="&lt;p style=&quot;margin:0px;margin-top:4px;text-align:center;&quot;&gt;&lt;b&gt;Auto&lt;/b&gt;&lt;/p&gt;&lt;hr size=&quot;1&quot; style=&quot;border-style:solid;&quot;&gt;&lt;p style=&quot;margin:0px;margin-left:4px;&quot;&gt;&lt;br&gt;&lt;/p&gt;&lt;hr size=&quot;1&quot; style=&quot;border-style:solid;&quot;&gt;&lt;p style=&quot;margin:0px;margin-left:4px;&quot;&gt;+ Auto(&lt;b&gt;int&lt;/b&gt;&amp;nbsp;lugar);&lt;/p&gt;&lt;p style=&quot;margin:0px;margin-left:4px;&quot;&gt;+ compareTo(&lt;b&gt;Vehiculo&lt;/b&gt;&amp;nbsp;o) : &lt;b&gt;int&lt;/b&gt;&lt;/p&gt;&lt;p style=&quot;margin:0px;margin-left:4px;&quot;&gt;+ toString() : &lt;b&gt;String&lt;/b&gt;&lt;/p&gt;" style="verticalAlign=top;align=left;overflow=fill;html=1;whiteSpace=wrap;" vertex="1" parent="1">
          <mxGeometry x="70" y="840" width="190" height="130" as="geometry" />
        </mxCell>
        <mxCell id="YAXkYYuzLb_Y9YDkj1pX-19" value="&lt;p style=&quot;margin:0px;margin-top:4px;text-align:center;&quot;&gt;&lt;b&gt;Moto&lt;/b&gt;&lt;/p&gt;&lt;hr size=&quot;1&quot; style=&quot;border-style:solid;&quot;&gt;&lt;p style=&quot;margin:0px;margin-left:4px;&quot;&gt;&lt;br&gt;&lt;/p&gt;&lt;hr size=&quot;1&quot; style=&quot;border-style:solid;&quot;&gt;&lt;p style=&quot;margin:0px;margin-left:4px;&quot;&gt;+ Moto(&lt;b&gt;int&lt;/b&gt;&amp;nbsp;lugar);&lt;/p&gt;&lt;p style=&quot;margin:0px;margin-left:4px;&quot;&gt;+ compareTo(&lt;b&gt;Vehiculo&lt;/b&gt;&amp;nbsp;o) : &lt;b&gt;int&lt;/b&gt;&lt;/p&gt;&lt;p style=&quot;margin:0px;margin-left:4px;&quot;&gt;+ toString() : &lt;b&gt;String&lt;/b&gt;&lt;/p&gt;" style="verticalAlign=top;align=left;overflow=fill;html=1;whiteSpace=wrap;" vertex="1" parent="1">
          <mxGeometry x="70" y="1000" width="190" height="130" as="geometry" />
        </mxCell>
        <mxCell id="YAXkYYuzLb_Y9YDkj1pX-20" value="&lt;p style=&quot;margin:0px;margin-top:4px;text-align:center;&quot;&gt;&lt;b&gt;Utilitario&lt;/b&gt;&lt;/p&gt;&lt;hr size=&quot;1&quot; style=&quot;border-style:solid;&quot;&gt;&lt;p style=&quot;margin:0px;margin-left:4px;&quot;&gt;&lt;br&gt;&lt;/p&gt;&lt;hr size=&quot;1&quot; style=&quot;border-style:solid;&quot;&gt;&lt;p style=&quot;margin:0px;margin-left:4px;&quot;&gt;+ Utilitario(&lt;b&gt;int&lt;/b&gt;&amp;nbsp;lugar);&lt;/p&gt;&lt;p style=&quot;margin:0px;margin-left:4px;&quot;&gt;+ compareTo(&lt;b&gt;Vehiculo&lt;/b&gt;&amp;nbsp;o) : &lt;b&gt;int&lt;/b&gt;&lt;/p&gt;&lt;p style=&quot;margin:0px;margin-left:4px;&quot;&gt;+ toString() : &lt;b&gt;String&lt;/b&gt;&lt;/p&gt;" style="verticalAlign=top;align=left;overflow=fill;html=1;whiteSpace=wrap;" vertex="1" parent="1">
          <mxGeometry x="300" y="1030" width="190" height="130" as="geometry" />
        </mxCell>
        <mxCell id="YAXkYYuzLb_Y9YDkj1pX-25" value="&lt;p style=&quot;margin:0px;margin-top:4px;text-align:center;&quot;&gt;&lt;b&gt;Validadores&lt;/b&gt;&lt;/p&gt;&lt;hr size=&quot;1&quot; style=&quot;border-style:solid;&quot;&gt;&lt;p style=&quot;margin:0px;margin-left:4px;&quot;&gt;- &lt;b&gt;static Scanner&lt;/b&gt;&amp;nbsp;: input = &lt;i&gt;new&lt;/i&gt;&amp;nbsp;Scanner()&lt;/p&gt;&lt;hr size=&quot;1&quot; style=&quot;border-style:solid;&quot;&gt;&lt;p style=&quot;margin:0px;margin-left:4px;&quot;&gt;+ method(): Type&lt;/p&gt;" style="verticalAlign=top;align=left;overflow=fill;html=1;whiteSpace=wrap;" vertex="1" parent="1">
          <mxGeometry x="520" y="1030" width="250" height="90" as="geometry" />
        </mxCell>
      </root>
    </mxGraphModel>
  </diagram>
</mxfile>
